<?xml version="1.0" standalone="no"?>
<!DOCTYPE svg PUBLIC "-//W3C//DTD SVG 20010904//EN"
 "http://www.w3.org/TR/2001/REC-SVG-20010904/DTD/svg10.dtd">
<svg version="1.0" xmlns="http://www.w3.org/2000/svg"
 width="512.000000pt" height="512.000000pt" viewBox="0 0 512.000000 512.000000"
 preserveAspectRatio="xMidYMid meet">

<g transform="translate(0.000000,512.000000) scale(0.100000,-0.100000)"
fill="#000000" stroke="none">
<path d="M2347 4386 c-95 -34 -157 -121 -157 -222 0 -31 14 -137 30 -237 17
-99 27 -183 23 -187 -4 -4 -48 -15 -98 -25 -265 -51 -574 -194 -810 -374 -85
-64 -256 -232 -328 -321 -292 -362 -447 -807 -447 -1287 l0 -133 2001 0 2002
0 -6 182 c-3 118 -13 226 -26 303 -21 120 -68 303 -81 318 -4 5 -36 -10 -71
-32 -85 -54 -198 -97 -304 -116 -560 -97 -1061 344 -1032 910 9 161 58 315
137 430 18 26 28 51 24 55 -14 13 -174 57 -259 71 -63 11 -75 16 -75 32 0 10
14 101 31 200 42 247 35 301 -47 381 -58 56 -103 66 -298 66 -117 -1 -183 -5
-209 -14z m-577 -1191 c16 -9 33 -27 36 -40 12 -50 -3 -72 -98 -137 -115 -79
-280 -236 -363 -347 -126 -167 -206 -338 -260 -556 -41 -163 -40 -161 -76
-176 -40 -16 -95 8 -105 46 -9 36 21 178 63 305 117 351 362 670 672 872 81
53 89 55 131 33z"/>
<path d="M3780 3826 c-216 -46 -404 -189 -499 -378 -61 -123 -76 -190 -75
-338 1 -143 22 -226 89 -347 50 -90 178 -218 268 -268 336 -186 746 -86 958
233 149 226 156 523 18 760 -49 82 -180 211 -262 257 -148 82 -343 113 -497
81z m220 -506 l0 -120 120 0 120 0 0 -80 0 -80 -120 0 -120 0 0 -120 0 -120
-80 0 -80 0 0 120 0 120 -120 0 -120 0 0 80 0 80 120 0 120 0 0 120 0 120 80
0 80 0 0 -120z"/>
<path d="M265 1415 c-24 -23 -25 -29 -25 -153 0 -109 3 -133 18 -150 9 -10 94
-67 188 -126 l172 -106 1942 0 1943 0 179 111 c98 61 183 120 188 130 6 10 10
74 10 144 0 120 -1 127 -25 150 l-24 25 -2271 0 -2271 0 -24 -25z"/>
</g>
</svg>
