<?xml version="1.0" standalone="no"?>
<!DOCTYPE svg PUBLIC "-//W3C//DTD SVG 20010904//EN"
 "http://www.w3.org/TR/2001/REC-SVG-20010904/DTD/svg10.dtd">
<svg version="1.0" xmlns="http://www.w3.org/2000/svg"
 width="512.000000pt" height="512.000000pt" viewBox="0 0 512.000000 512.000000"
 preserveAspectRatio="xMidYMid meet">

<g transform="translate(0.000000,512.000000) scale(0.100000,-0.100000)"
fill="#000000" stroke="none">
<path d="M1690 5106 c-438 -58 -818 -243 -1126 -550 -677 -676 -752 -1735
-177 -2508 629 -845 1854 -1018 2688 -378 44 33 82 60 85 60 3 0 88 -83 190
-185 l184 -184 -81 -84 c-87 -89 -102 -121 -88 -194 5 -34 68 -99 523 -555
561 -560 537 -540 630 -523 32 5 75 44 314 283 239 239 278 282 283 315 17 92
37 68 -523 629 -456 455 -521 518 -554 523 -74 14 -106 -1 -195 -88 l-84 -81
-184 184 c-102 102 -185 187 -185 190 0 3 27 41 60 85 576 750 503 1833 -169
2506 -294 294 -637 471 -1056 544 -125 22 -404 28 -535 11z m533 -336 c152
-29 273 -71 412 -140 159 -79 287 -172 415 -300 230 -230 377 -507 442 -832
32 -162 32 -434 0 -596 -31 -154 -72 -274 -143 -417 -78 -158 -171 -286 -299
-415 -229 -229 -508 -377 -832 -442 -165 -33 -435 -32 -598 1 -161 33 -276 72
-415 142 -159 79 -287 171 -415 299 -230 230 -377 507 -442 832 -32 162 -32
434 0 596 43 212 118 400 228 569 265 409 700 675 1189 727 96 10 353 -3 458
-24z"/>
<path d="M1855 4066 c-66 -30 -95 -84 -95 -176 0 -57 -1 -60 -27 -65 -331 -71
-597 -275 -746 -570 -31 -62 -76 -192 -91 -266 -6 -26 -9 -27 -80 -31 -80 -4
-110 -18 -150 -72 -16 -20 -21 -42 -21 -86 0 -63 16 -95 69 -134 27 -21 31
-21 1206 -21 1175 0 1179 0 1206 21 53 39 69 71 69 134 0 44 -5 66 -21 86 -39
53 -69 68 -151 74 l-76 5 -13 60 c-76 364 -377 678 -744 778 -30 9 -67 18 -81
21 -26 6 -27 9 -31 80 -4 80 -18 110 -70 149 -34 25 -113 32 -153 13z"/>
</g>
</svg>
