<?xml version="1.0" standalone="no"?>
<!DOCTYPE svg PUBLIC "-//W3C//DTD SVG 20010904//EN"
 "http://www.w3.org/TR/2001/REC-SVG-20010904/DTD/svg10.dtd">
<svg version="1.0" xmlns="http://www.w3.org/2000/svg"
 width="512.000000pt" height="512.000000pt" viewBox="0 0 512.000000 512.000000"
 preserveAspectRatio="xMidYMid meet">

<g transform="translate(0.000000,512.000000) scale(0.100000,-0.100000)"
fill="#000000" stroke="none">
<path d="M2380 5110 c-490 -68 -912 -381 -1111 -824 -30 -67 -37 -76 -60 -76
-45 0 -191 -28 -259 -50 -104 -34 -239 -103 -326 -168 -289 -216 -454 -544
-454 -902 0 -497 317 -924 800 -1078 l85 -27 1505 0 1505 0 85 27 c238 76 437
217 582 412 64 86 134 222 168 326 71 221 65 496 -15 720 -115 317 -375 573
-691 681 -84 29 -230 59 -283 59 -23 0 -30 9 -60 76 -186 414 -574 721 -1023
809 -97 19 -355 28 -448 15z"/>
<path d="M1147 1673 c-4 -3 -7 -71 -7 -150 l0 -143 1420 0 1421 0 -3 148 -3
147 -1411 3 c-776 1 -1414 -1 -1417 -5z"/>
<path d="M1147 1073 c-4 -3 -7 -246 -7 -540 l0 -533 335 0 335 0 0 260 0 260
150 0 150 0 0 -260 0 -260 150 0 150 0 0 260 0 260 150 0 150 0 0 -260 0 -260
150 0 150 0 0 260 0 260 150 0 150 0 0 -260 0 -260 335 0 335 0 -2 537 -3 538
-1411 3 c-776 1 -1414 -1 -1417 -5z"/>
</g>
</svg>
