<?xml version="1.0" standalone="no"?>
<!DOCTYPE svg PUBLIC "-//W3C//DTD SVG 20010904//EN"
 "http://www.w3.org/TR/2001/REC-SVG-20010904/DTD/svg10.dtd">
<svg version="1.0" xmlns="http://www.w3.org/2000/svg"
 width="512.000000pt" height="512.000000pt" viewBox="0 0 512.000000 512.000000"
 preserveAspectRatio="xMidYMid meet">

<g transform="translate(0.000000,512.000000) scale(0.100000,-0.100000)"
fill="#000000" stroke="none">
<path d="M840 5098 c-24 -13 -58 -40 -74 -61 -29 -37 -31 -44 -34 -142 l-4
-103 -66 -4 c-37 -2 -83 -12 -103 -22 -110 -53 -164 -179 -125 -289 35 -96
107 -147 221 -156 l70 -6 3 -161 2 -162 -73 -4 c-61 -3 -83 -9 -123 -33 -126
-78 -150 -254 -48 -359 50 -52 89 -69 172 -74 l72 -5 0 -157 0 -158 -67 -7
c-115 -12 -179 -52 -219 -140 -29 -62 -30 -125 -3 -185 42 -92 110 -138 220
-147 l69 -6 0 -157 0 -157 -69 -6 c-110 -9 -178 -55 -220 -147 -51 -113 7
-257 124 -306 17 -6 60 -15 98 -19 l67 -7 0 -158 0 -157 -72 -5 c-83 -5 -122
-22 -172 -74 -102 -105 -78 -281 48 -359 40 -24 62 -30 123 -33 l73 -4 -2
-162 -3 -161 -70 -6 c-114 -9 -186 -60 -221 -156 -39 -110 15 -236 125 -289
20 -10 66 -20 103 -22 l66 -4 4 -103 c3 -98 5 -105 34 -142 16 -21 50 -48 74
-60 l44 -23 1837 0 1836 0 44 23 c24 13 58 43 74 66 l30 43 0 2428 0 2428 -30
43 c-16 23 -50 53 -74 66 l-44 23 -1836 0 -1837 0 -44 -22z m-110 -543 l0 -85
-49 0 c-80 0 -128 57 -99 118 17 34 52 52 106 52 l42 0 0 -85z m2145 -201 c23
-12 50 -37 63 -60 21 -36 23 -47 18 -139 l-5 -100 82 -23 c45 -12 127 -44 182
-71 336 -163 575 -484 630 -851 8 -52 15 -98 15 -102 0 -5 21 -8 46 -8 109 0
144 -47 144 -194 0 -110 -13 -152 -56 -181 -28 -20 -55 -20 -1274 -20 -1173 0
-1247 1 -1273 18 -53 34 -62 61 -62 182 0 92 3 115 19 138 26 39 66 57 126 57
l50 0 0 33 c0 97 53 284 117 412 54 110 163 256 246 331 131 117 298 211 461
259 57 16 81 28 80 38 -1 8 -4 48 -8 89 -6 64 -4 78 16 117 42 82 89 101 243
98 79 -2 109 -7 140 -23z m-2145 -600 l0 -86 -56 4 c-69 6 -98 31 -98 84 0 53
39 84 105 84 l49 0 0 -86z m-2 -796 c-3 -80 -4 -83 -28 -86 -77 -11 -142 48
-121 110 15 44 39 57 99 58 l53 0 -3 -82z m0 -795 l3 -83 -53 0 c-59 1 -82 13
-98 55 -23 61 32 118 110 112 l35 -2 3 -82z m3420 -349 c82 -23 102 -45 102
-111 0 -67 -14 -74 -82 -42 -66 31 -156 33 -187 5 -25 -23 -28 -72 -5 -104 9
-13 58 -43 109 -68 163 -80 205 -131 205 -251 0 -80 -27 -141 -82 -185 -81
-67 -236 -88 -340 -47 -80 31 -98 52 -98 116 0 68 13 74 88 40 77 -35 132 -42
188 -27 48 14 74 46 74 94 0 32 -46 70 -130 109 -142 65 -200 134 -200 239 0
91 10 119 59 168 75 74 183 97 299 64z m-1347 -11 c4 -4 16 -42 25 -83 9 -41
23 -102 31 -135 19 -80 55 -241 79 -355 5 -24 7 -23 19 13 7 21 16 55 19 75 4
20 13 60 21 87 8 28 24 93 36 145 40 175 59 244 70 255 16 16 146 13 162 -5 8
-8 26 -67 41 -130 14 -63 31 -131 36 -150 17 -61 42 -163 56 -228 22 -101 29
-103 47 -15 9 43 32 148 52 233 19 85 42 184 49 218 8 35 19 69 25 75 16 16
127 15 143 -1 10 -10 7 -33 -16 -120 -169 -658 -165 -645 -188 -665 -25 -21
-164 -25 -191 -4 -11 8 -37 92 -77 252 -33 132 -62 245 -64 250 -4 12 -18 -35
-51 -180 -62 -265 -75 -310 -92 -322 -20 -15 -156 -17 -183 -3 -21 11 -29 33
-69 190 -16 63 -48 187 -71 275 -86 327 -86 329 -52 339 25 7 133 -1 143 -11z
m-1317 -15 c27 -24 92 -142 204 -370 37 -75 70 -137 74 -137 4 -1 9 117 10
262 l3 262 70 0 70 0 3 -386 c2 -350 1 -388 -14 -400 -11 -9 -43 -14 -90 -14
-104 0 -85 -25 -303 397 l-91 177 0 -279 c0 -315 4 -300 -80 -300 -86 0 -80
-28 -80 397 0 336 2 378 17 395 13 15 31 18 99 18 72 0 86 -3 108 -22z m1064
10 c13 -13 16 -86 4 -105 -5 -9 -52 -13 -152 -15 l-145 -3 -3 -92 -3 -92 128
-3 128 -3 0 -60 0 -60 -127 -3 -128 -3 0 -109 0 -110 143 0 c98 0 147 -4 155
-12 17 -17 15 -103 -2 -117 -10 -9 -74 -11 -226 -9 -196 3 -213 4 -226 22 -22
31 -21 732 2 764 15 22 19 22 228 22 151 0 215 -3 224 -12z m-1818 -433 l0
-85 -49 0 c-80 0 -128 57 -99 118 17 34 52 52 106 52 l42 0 0 -85z m0 -801 l0
-86 -56 4 c-69 6 -98 31 -98 84 0 53 39 84 105 84 l49 0 0 -86z"/>
<path d="M2630 4196 c0 -13 3 -44 6 -70 l7 -46 74 0 c82 0 79 -3 86 83 l6 57
-90 0 c-87 0 -89 -1 -89 -24z"/>
<path d="M2553 3910 c-262 -47 -504 -204 -652 -423 -81 -120 -148 -302 -164
-444 l-5 -43 76 0 c82 -1 105 -10 120 -51 14 -39 0 -72 -38 -91 -29 -15 -62
-18 -192 -18 l-158 0 0 -40 0 -40 1175 0 1175 0 0 40 0 40 -835 0 c-916 0
-896 -1 -912 57 -10 37 -6 53 20 81 l20 22 760 0 759 0 -7 63 c-16 135 -84
315 -166 433 -48 71 -166 191 -234 239 -84 60 -207 120 -311 151 -74 22 -113
27 -234 30 -80 1 -168 -1 -197 -6z"/>
</g>
</svg>
