<?xml version="1.0" standalone="no"?>
<!DOCTYPE svg PUBLIC "-//W3C//DTD SVG 20010904//EN"
 "http://www.w3.org/TR/2001/REC-SVG-20010904/DTD/svg10.dtd">
<svg version="1.0" xmlns="http://www.w3.org/2000/svg"
 width="512.000000pt" height="512.000000pt" viewBox="0 0 512.000000 512.000000"
 preserveAspectRatio="xMidYMid meet">

<g transform="translate(0.000000,512.000000) scale(0.100000,-0.100000)"
fill="#000000" stroke="none">
<path d="M938 5097 c-126 -43 -227 -134 -278 -250 -11 -25 -25 -84 -31 -129
-6 -54 -9 -863 -7 -2293 3 -2112 4 -2212 21 -2257 26 -65 88 -133 142 -153 64
-25 149 -17 219 21 31 17 341 272 731 604 372 316 695 586 718 600 35 21 55
25 117 25 64 0 82 -4 120 -27 25 -15 349 -287 720 -604 501 -428 690 -584 735
-605 107 -52 217 -33 285 49 64 78 60 -88 58 2427 l-3 2290 -32 68 c-44 93
-119 169 -212 215 l-75 37 -1580 2 -1581 3 -67 -23z m1737 -1097 c46 -29 68
-74 73 -155 l4 -71 77 -17 c370 -84 684 -398 768 -768 l17 -77 71 -4 c45 -3
83 -12 104 -24 99 -59 100 -205 1 -267 l-35 -22 -1165 0 -1165 0 -35 22 c-98
61 -99 205 -1 265 23 15 56 23 105 26 l72 4 17 77 c84 370 398 684 770 768
l77 18 0 50 c0 71 16 120 51 154 52 53 129 61 194 21z"/>
</g>
</svg>
